<svg fill="none" height="469" viewBox="0 0 1440 469" width="1440" xmlns="http://www.w3.org/2000/svg"><path d="m-14 290h1456v179h-1456z" fill="#011732"/><g fill="#011731"><path d="m-69 288.761c15.6268-12.801 31.6193-17.065 50.5842-13.201 13.63734 2.778 27.92095.833 41.3551 3.972 12.1453 2.837 23.2815 2.92 35.7477 2.92 13.4451 0 27.1426 1.904 40.5375.818 13.5175-1.096 26.7145-5.662 40.0115-8.178 15.267-2.888 30.384-3.154 45.853-3.154 14.979 0 30.083.675 45.035 1.636 9.053.581 17.911 2.228 26.928 3.037 10.966.984 21.906-.252 32.885-.409 18.348-.262 36.331-1.029 54.031-6.367 7.009-2.113 10.832-8.714 18.458-7.885 5.452.592 11.071.043 16.472.993 7.072 1.244 12.945 5.559 20.21 6.425 17.657 2.105 33.841-6.521 51.285-6.892 16.449-.35 33.088-8.033 49.65-2.921 20.658 6.376 42.98 9.271 64.252 12.558 12.101 1.87 23.901.311 35.865-1.752 18.449-3.181 39.136.526 57.768.526 16.607 0 32.131-1.09 48.54-3.972 16.117-2.832 34.076.124 50.351 1.051 15.006.855 29.311 3.219 44.451 2.862 19.177-.451 37.055-6.762 55.782-10.222 15.313-2.828 30.321-7.622 45.912-8.645 14.033-.92 27.117-3.964 40.946-5.724 23.022-2.93 45.846-.268 68.87.526 11.5.397 22.75 2.044 34.34 2.044 7.84 0 12.94 1.085 20.21 3.972 7.84 3.11 17.04.781 25.24 3.388 12.52 3.985 25.64.866 38.31-1.051 17.48-2.643 33.91-8.598 51.29-11.566 17.93-3.061 35.86-8.975 54.09-9.404 17.62-.415 35.28-.01 52.8 2.044 12.02 1.41 23.07 6.346 35.05 7.886 4.79.616 9.97.958 14.48 2.862 4.98 2.101 7.96 3.87 13.67 3.972 10.1.18 20.06.564 30.14.993 9.55.406 17-.021 26.05 3.213 10.93 3.902 20.77 7.458 30.67 13.668 8.28 5.196 10.76 12.57 16.18 20.327 4.01 5.745 5.59 16.62 1.87 23.014-7.64 13.117-23.23 17.8-37.33 18.75-25.99 1.753-51.08 8.182-77.27 9.171-13.48.508-26.86.625-40.19 2.92-11.94 2.056-23.71 4.348-35.86 4.615-22.4.492-44.52-2.671-66.77-4.673-26.5-2.386-53.25-2.629-79.85-2.629-30.77 0-61.52-1.051-92.29-1.051-34.291 0-69.007-1.687-103.034 3.388-18.158 2.708-36.022 5.854-54.44 6.075-15.726.188-31.468 0-47.196 0-27.423 0-54.931-.946-82.301-2.687-28.608-1.821-57.148-1.416-85.806-1.519-66.786-.241-133.506-1.02-200.293 1.051-27.321.847-54.402 0-81.717 0-21.703 0-43.407 1.052-65.129 1.052-44.921 0-89.166 1.488-134.054-2.103-25.673-2.054-51.755-3.037-77.1609-7.477-14.9125-2.606-29.5946-6.012-44.3341-9.346-19.0766-4.314-38.3161-7.429-57.59353-10.514-7.91547-1.266-14.23637-3.078-20.44397-8.177-6.0539-4.973-12.6035-7.375-19.5093-10.689-4.2396-2.035-11.5353-4.029-16.2384-4.264-2.807-.141-5.0416-3.519-7.3598-5.257z"/><path d="m1268.28 293.323c2.6-2.612 5.19-5.322 8.44-6.847 2.8-1.223 6.01-1.511 9.03-1.757 15.56-.923 33.76-1.909 42.63-14.785 6.54-9.503 5.06-21.463 1.27-32.816-1.69-4.954-7.58-6.642-11.83-3.571-1.76 1.304-3.77 1.945-5.94 1.392-2.8-.621-4.93-2.919-7.5-3.897-6.85-2.81-14.21 3.804-16.67 10.886-2.37 6.962-2.01 14.763-4.92 21.637-3.04 7.209-12.41 13.032-18.62 7.524-2.53-2.214-3.59-5.668-3.29-9.007.55-5.953 4.26-10.545 7.89-15.018 9.94-12.187 19.88-24.374 29.82-36.561 5.4-6.699 11-13.44 18.14-18.265 4.63-3.156 9.78-5.398 14.27-8.728 9.52-7.081 27.15-13.981 26.74-25.762-.26-6.39-7.55-9.82-12.81-6.223-.1.021-.17.14-.27.161-5.88 4.04-13.75-.185-13.56-7.289.03-3.178.17-6.279-.09-9.393-.27-3.115-.08-6.943-4.26-8.286-2.42-.803-5.04-.133-7.06 1.43-18.61 15.606-19.05 39.032-27.68 60.554-2.05 5.153-6.85 10.391-12.33 8.206-2.93-1.207-4.63-4.318-4.7-7.474-.02-6.237 4.26-10.545 7.89-15.018 4.6-5.705 8.46-11.966 11.31-18.623 1.78-4.07 3.18-8.467 2.63-12.852-.54-4.384-3.73-8.706-8.06-9.301-3.47-.473-7.18 2.275-7.81 5.483-.47 2.557-3.49 3.725-5.32 1.872-.4-.424-.82-.947-1.05-1.512-1.06-2.533-.34-5.349.2-8.026 1.5-7.694 1.82-15.643.85-23.414-.49-3.679-1.38-7.783-6.28-8.6638-2.24-.4338-4.47.152-6.39 1.1838-14.42 8.044-18.05 26.227-18.04 42.291.04 15.24 2.14 31.054-3.71 45.115 0 0 .02.098-.07.119-1.89 4.503-8.6 3.3-8.93-1.54l-1.25-20.809c-.44-6.76-2.41-15.338-9.17-16.325-7.81-1.068-11.68 9.391-11.12 17.149.26 3.526.67 7.325.51 10.838-.26 5.379-8.4 5.101-8.36-.333.07-2.061.13-4.121.12-6.063-.14-6.313-6.33-14.077-11.46-9.893-1.74 1.402-2.57 3.73-2.39 5.943 2.5 35.579 17.78 70.123 42.43 95.981 2.66 2.8 5.51 5.558 7.19 9.08 3.03 6.404 1.43 14.119-1.46 20.58-1.88 4.091-3.11 7.838-4.87 12.006-1.15 2.706-2.3 5.412-2.7 8.263-.24 2.2.07 4.588 1.45 6.233 2.04 2.32 5.75 2.435 8.55 1.212 2.81-1.223 5.09-3.457 7.57-5.224 2.81-2.145 6.02-3.865 8.4-6.532 2.97-3.305 4.47-7.723 7.33-11.007"/><path d="m1082.24 297.204c-1.6 1.1-3.2-1.4-3.5-3.3-1.6-10.5-.6-21.4 3.1-31.3.8-2.3 1.8-4.6 3.8-6 1-.7 2.2-1.1 3.5-1 2.5.2 3.4 2 4.1 3.6l5.6 12.8c.4 1 1.2 1.8 2.3 2.1 1.8.6 2.9-.7 3.6-2 3.8-6.3 4.1-14.1 3.6-21.5s-1.7-14.8-.6-22.1c.7-4.4 2.5-8.8 5.3-12.2 2.7-3.2 8-1.7 8.7 2.4.8 5.1.8 10.2 0 15.3-.8 4.9-2.2 9.6-2.9 14.5s-.5 10.1 1.8 14.4c.5.9 1.1 1.8 2.5 1.6 1.2-.2 2.1-1.2 2.3-2.4l3.1-13.5c3.4-14.8 6.8-30 5.3-45.2-.7-7.3-2.6-14.9-.2-21.9.6-1.8 1.6-3.6 4.5-3.5 1.5.1 2.9.7 4 1.7 9.5 7.8 11.3 21.6 9.4 33.6-1.8 11.7-6.3 22.8-7.7 34.5-.1.8-.2 1.6-.2 2.3-.2 5.4 7.7 6.6 9 1.3.2-.8.3-1.5.5-2.3 3.7-18.9 5.6-38.5 13.8-56 .5-1.1 1.3-2 2.3-2.5 2.2-1.1 3.8.3 5.2 1.6 3.1 3 6.3 6.1 7.3 10.3.9 3.4.1 7.1-.8 10.5-3 11.4-7.4 22.5-13 32.8-.9 1.6-1.8 3.2-2.6 4.8-3 5.7 2.8 12.2 8.7 9.6.1 0 .1-.1.2-.1 2.5-1.1 5.3.9 4.9 3.6-.6 3.9-1.4 7.8-3 11.4-2.7 6.2-7.9 11.8-14.6 13.1-2.6.5-5.3.3-8 .8-10.3 1.8-18 13.1-28.4 12.5-1.8-.1-3.5-.6-5.2-.3-3.8.7-6.2 4.8-10 5.7-3 .8-6.1-.7-8.7-2.5"/><path d="m442.199 221.523c-3.654-3.488-10.702-5.668-17.749-5.087-13.05 1.018-16.705 9.738-15.921 16.715.783 6.54 3.654 13.807-3.133 19.33-.522.436-1.044.872-2.088 1.018-.783.145-1.827 0-2.61-.146-3.654-.726-6.786-2.18-8.874-4.069-4.437-4.506-3.132-9.447-1.566-14.244 4.437-14.098 10.962-28.196 11.223-42.585.261-9.302-2.349-18.749-9.135-27.179-5.742-7.122-25.057-4.506-24.535 3.343v.145c.783 14.389 5.742 28.633 6.525 42.876.783 14.389-2.61 28.923-10.179 42.876-5.22.291-10.441-1.744-12.79-4.505-2.349-2.617-2.349-5.814-1.566-8.721 2.088-6.395 8.092-12.354 10.702-18.749 3.132-7.994-.522-16.715-9.136-23.255-1.044-.727-2.088-1.453-3.654-1.889-4.698-1.454-10.44.872-13.572 3.342-8.092 6.396-9.658 14.68-9.136 22.529.783 7.848 3.393 15.551 2.871 23.4-.261 2.325-.783 4.796-4.176 6.395-1.566.726-3.915 1.162-6.003.726-3.654-.726-4.437-3.052-4.698-4.941-1.044-7.413-1.827-14.825-2.871-22.238-.261-2.906-.783-5.813-4.438-8.139-2.088-1.308-5.481-2.035-8.352-1.599-6.525 1.018-7.047 5.814-5.742 9.448 3.654 10.319 10.44 20.638 7.308 31.103-.261 1.163-1.044 2.471-2.871 3.052-2.349.727-5.481 0-7.569-1.017-8.092-3.634-11.485-9.593-12.268-15.407-1.044-5.813 0-11.627-1.566-17.295-1.305-4.942-4.698-9.738-6.525-14.825-3.654-10.174-.261-20.784 0-31.104.261-12.79-4.698-25.434-14.095-37.062-2.088-2.471-4.437-4.941-8.874-6.25-2.088-.581-4.698-.726-7.047-.145-5.481 1.308-5.481 5.087-4.959 8.139 3.132 17.296 6.264 34.592 12.267 51.742 6.786 19.04 17.227 38.952 5.481 57.12-4.698.436-7.047-3.052-7.569-5.814-3.654-18.458-7.569-36.917-11.223-55.375-.261-1.308-1.305-2.471-3.394-3.053-4.959-1.744-10.179 1.89-11.484 4.942-7.83 17.877 15.139 36.917 6.525 54.649-.522.872-1.044 1.889-3.654 2.035-2.349.145-4.437-.727-5.481-1.89-11.224-13.517-12.268-28.778-15.661-43.603-2.088-8.72-5.22-17.586-11.223-25.58-3.393-4.215-14.617-2.471-13.834 2.035 1.827 11.773 4.698 23.4 10.18 34.737 5.742 11.773 14.616 23.836 10.701 35.899-.261 1.018-1.305 2.326-3.132 2.326-1.044 0-1.827-.291-2.61-.727-8.091-3.779-12.007-9.447-15.4-15.115-14.094-22.819-26.101-46.219-35.236-69.765-2.088-5.378-6.003-11.627-15.661-12.645-10.962 10.174-7.83 22.964-4.176 34.592 2.349 7.703 4.698 15.552 10.702 22.528 5.742 6.686 14.616 12.354 21.141 18.749 6.787 6.395 11.224 14.098 7.048 21.075-.783 1.163-2.349 2.616-4.438 2.471-1.566-.146-2.61-.872-3.393-1.599-13.311-11.918-22.447-25.144-27.145-38.952-1.827-5.378-4.176-11.773-13.311-13.517-1.566-.29-3.393-.436-4.437.146-.783.436-1.305 1.017-1.566 1.598-3.9156 9.302 2.871 19.04 10.179 27.615 4.698 5.378 9.918 10.756 13.05 16.424 4.96 8.575 14.095 16.424 25.84 22.819-2.088 4.36 6.004 9.156 14.095 8.43 2.871-.291 5.481-1.163 8.352-1.308 4.96-.291 9.658 1.598 14.356 2.47 9.135 1.745 19.576.001 28.972 1.163 6.786.872 12.529 3.052 18.532 4.651 28.189 7.558 62.12 3.198 91.875.436 20.881-1.889 41.501-4.069 62.121-6.831 12.789-1.744 28.711-3.633 35.497-10.174 4.959-4.651 3.915-10.464 5.742-15.697 1.827-5.232 6.265-10.028 9.658-15.115 4.698-5.378 7.047-12.209.783-17.878z"/><path d="m419.216 98.5339c-2.059-9.4079-2.137-18.5251 1.365-27.7644.285-.5651.423-1.2328 1.296-1.388s1.732.3351 2.363.9944c4.114 5.0557 7.348 9.4964 10.326 15.3971 15.945 32.531 11.642 67.634 19.038 102.715 1.668 7.934 11.596.124 10.133-8.104-.909-5.111-1.452-11.059-2.658-18.561-6.545-41.148-12.994-86.8135-21.219-127.2766-1.823-8.8069-1.313-11.7268-.53-18.1679.632-5.1279 6.183-5.7294 8.17-1.067 6.217 14.713 7.462 29.6672 8.687 46.6825 1.242 18.5557 2.327 39.84 3.452 59.188 1.514 24.423 2.333 49.999 14.809 71.701.765 1.408 1.623 1.898 3.222 1.485 1.122-.2 2.022-1.646 2.343-2.732 2.022-7.433 1.196-16.417-.602-22.913-6.426-22.392-9.831-40.821-10.669-64.335-.244-7.1587.168-17.1347 4.714-24.1162 1.208-1.8866 3.684-3.8703 6.158-2.2526.757.6372 1.308 1.568 1.463 2.4406 1.441 8.1032.785 16.7079-.525 24.5282-4.941 30.073-6.464 43.204 5.691 71.78 1.325 3.108 6.209 2.368 6.754-1.073l-.022-.125c3.065-39.898-.824-79.8462-1.632-119.8277-.142-7.3053.589-14.7659 6.722-19.329 1.239-.9918 2.735-1.2578 4.217-.8784 2.715.8033 4.2 3.3686 4.937 6.0668 3.959 15.7575.81 30.5928-1.934 46.2565-3.961 22.5678-6.198 44.6998-3.454 67.3608 1 7.796 11.159 7.79 13.225.606 2.526-8.937 3.379-18.606 3.528-27.892s-1.175-18.181-1.422-27.526c-.159-8.8455.057-17.7577.669-26.6117l-.022-.1247c.648-3.5876 5.598-3.9535 6.366-.3605 9.54 42.8009 4.595 85.8639-8.612 127.3089-3.119 9.943-7.271 20.584-9.238 31.222-2.096 12.076-1.816 24.501-1.954 36.743-.066 11.2-.492 21.822-.762 33.316-.238 8.788-.241 18.176-4.315 26.36-.726.258-5.627-.543-5.569-.939-.618-12.879 1.082-25.013-.68-37.818-6.17-44.815-36.711-77.708-50.842-119.565-4.905-14.56-9.349-30.875-14.627-45.369-3.32-8.541-6.301-16.627-8.36-26.0351z"/><path d="m679.217 241.275c-.747-8.338-.187-16.677-2.802-24.695-3.176-9.943-10.835-19.725-7.659-29.828 2.802-.962 6.165.321 8.22 2.246 2.055 1.924 2.989 4.49 3.923 7.055 1.868 5.453 3.549 11.065 4.67 16.678 4.67 21.809 4.296 44.901 14.011 65.428 1.681 3.688 4.67 7.857 9.34 8.018 5.791-12.509-5.417-25.979-6.538-39.449-.374-4.49.373-9.141-.934-13.631-1.308-4.651-4.484-8.66-6.352-12.989-5.604-12.99.374-27.583-2.055-41.213-1.868-10.905-8.78-21.649-5.791-32.393.374-1.283.747-2.406 1.681-3.368 2.429-2.566 7.286-2.405 10.275-.321 2.989 2.085 4.67 5.132 5.604 8.339 3.55 12.188 0 25.177 1.495 37.685.934 7.858 3.736 15.555 5.231 23.413 1.494 7.537 1.681 15.074 1.868 22.771.56 15.716 1.868 31.271 3.549 46.826.374 2.886.747 6.094 3.363 8.178 2.989-.481 3.736-3.688 3.736-6.254.187-12.829-1.681-25.497-1.681-38.166-.187-17.159 2.802-34.157 2.241-51.316-.56-20.045-5.604-39.769-8.967-59.654-.373-2.245-.56-4.811 1.682-6.094.934-.481 2.055-.641 3.175-.481 4.484.321 8.22 3.368 10.275 6.896s2.429 7.537 2.989 11.385c3.176 30.148 2.242 60.617-2.989 90.605-1.308 7.055-2.242 15.394 4.11 20.045 1.121.962 2.615 1.603 3.549 2.726.934 1.443.934 3.047.747 4.65-.373 7.537-.934 15.074-1.307 22.611-.187 1.925-.187 3.849.747 5.613s2.989 3.047 5.231 2.566c-.187-30.309-.374-60.777-.561-91.086 0-6.093 0-12.187 1.121-18.281 2.055-10.744 8.033-21.809 3.736-31.912-.934-2.084-2.241-3.848-2.615-6.093s.187-4.651 2.429-5.613c2.428-1.123 5.791.16 7.285 2.085 1.495 2.084 1.868 4.65 1.868 7.056 2.802 44.42-5.791 89.161-2.989 133.581.187 3.047.934 6.735 4.11 7.857 3.55-1.924 4.11-6.093 4.484-9.621 1.681-22.451 3.362-45.062 5.043-67.512.374-4.17.748-8.5 2.803-12.348 2.054-3.849 6.538-7.056 11.395-6.896.56 16.197-5.417 31.912-6.352 48.109-.934 17.96 4.297 36.402-.56 53.881-2.055 7.056-6.538 14.433-14.571 16.838-5.044 1.443-10.648.641-15.879-.16-15.132-2.406-31.011-5.132-42.593-13.791-9.714-7.377-6.351-17.64-12.142-26.62-6.726-10.424-9.715-21.329-10.649-33.356z"/><path d="m981.173 255.203c-10.44-13.485-18.354-28.824-23.237-45.174-3.199-10.451-5.052-21.576-3.199-32.196.505-3.202 2.02-6.911 5.22-7.248 1.515-.168 3.031.337 4.209 1.18 4.715 3.203 5.894 9.608 6.567 15.171.842 8.091 1.179 16.35.674 24.61-.168 3.034-.337 5.899.337 8.765.673 3.034 2.526 5.899 4.209 8.596 11.619 18.542 21.891 37.926 30.647 57.985 4.55-13.485-1.85-27.812-6.904-41.129-9.261-23.935-15.323-49.219-17.512-74.841-.505-5.393-.842-10.787-1.684-16.181-3.031-17.868-12.629-33.881-18.354-50.906-2.021-5.8992-3.705-12.4731-2.021-18.5412 1.684-6.0682 7.409-11.4621 13.639-10.6193 7.409 1.0113 10.946 9.4394 12.966 16.6875 5.052 17.53 9.093 35.566 8.42 53.771-.337 11.125-2.526 22.25-2.189 33.543.168 9.608 2.189 19.048 4.209 28.487 6.23 28.992 12.29 57.985 18.52 86.977 6.06-52.254-8.08-104.676-6.4-157.267.34-8.259.85-16.856-.84-24.947-3.2-14.1587-13.469-25.6209-19.531-38.7686-2.694-5.731-4.715-11.7992-5.725-18.0359-1.684-9.1023-.505-20.3959 7.578-25.1155 4.883-2.8656 11.278-2.5284 16.168.1685 5.05 2.5284 8.75 7.0796 11.62 12.1364 8.92 15.8446 7.91 35.3977 6.56 53.6022-1.51 21.5759-3.2 43.1519-4.71 64.7269-.68 8.597-1.18 17.362-.51 25.959.68 8.596 2.7 17.024 3.54 25.621.84 10.113 0 20.396-.84 30.509-1.18 13.654-2.36 27.307-3.54 40.96-.17 2.866-.17 6.406 2.19 7.923s5.72 0 7.07-2.36 1.52-5.225 1.52-8.091c.33-33.375-.84-66.581 2.02-99.788 2.02-22.587 5.72-45.174 11.45-67.087.67-2.865 1.68-6.068 3.7-8.091 2.19-2.191 5.9-3.034 8.09-1.011 1.01 1.011 1.51 2.36 2.02 3.708 6.56 19.385 6.56 40.96-.34 60.176-1.85 5.226-4.21 10.451-6.06 15.676-2.53 7.754-3.71 15.845-5.05 23.767-1.18 7.923-2.53 16.014-3.71 23.936-2.86 18.879-5.89 37.758-9.09 56.468-1.35 7.754-3.71 16.687-11.12 19.216-12.96 4.551-19.19-9.777-20.37-19.553-1.684-13.148-12.461-23.093-20.207-33.375z"/><path clip-rule="evenodd" d="m887.843 285.891c.328-6.886 1.311-13.443 3.605-19.673 2.622-7.214 6.882-13.444 11.47-19.346 4.261-5.902 8.849-11.476 14.093-16.067 1.325-1.187 2.74-2.343 4.165-3.509 5.268-4.308 10.673-8.729 12.221-15.181 1.967-7.541-2.949-16.395-10.487-18.362-5.244-1.639-12.126.656-13.437 5.902-.403 1.612-.31 3.39-.219 5.152.132 2.538.262 5.045-1.092 6.98-2.949 4.263-8.849.328-12.126-3.935-3.605-4.918-4.916-9.508-5.571-14.755-2.294-21.641 3.605-43.938 16.714-62.627 3.277-4.591-.983-13.116-5.244-17.051-11.47-9.837-33.1-10.165-44.243.656-3.933 3.935-6.555 10.492-3.933 15.411 1.654 2.896 4.482 4.487 7.332 6.09 1.668.938 3.342 1.881 4.794 3.091 5.571 4.918 5.899 13.444 5.899 20.985 0 1.312 0 2.951-.983 3.935-.655.983-1.966.983-3.277.983-5.244 0-8.439-4.836-11.635-9.672-3.195-4.837-6.39-9.673-11.634-9.673-2.294 0-4.26.983-6.227 2.295-3.933 2.623-6.882 6.558-8.193 11.148-1.311 4.591-.328 9.837 2.949 13.116 3.021 3.2 7.295 4.376 11.619 5.566 3.651 1.005 7.339 2.019 10.339 4.271 5.244 3.935 7.21 10.165 8.521 16.395 1.639 7.869 2.622 16.066 2.622 24.264 0 1.639 0 3.607-1.311 4.59-.983.656-2.294.656-3.605.656-5.244-.328-10.487-.656-14.748-3.279-4.012-2.408-6.55-6.291-9.119-10.219-1.627-2.489-3.267-4.997-5.301-7.159-5.571-6.558-15.403-9.837-23.268-6.558-7.538 2.951-12.126 11.476-11.471 19.346.655 8.197 5.571 15.411 12.126 20.001 2.281 1.426 4.685 2.604 7.079 3.777 3.11 1.524 6.202 3.038 8.98 5.076 8.848 6.886 12.126 18.69 13.764 29.839.265 1.802.504 3.621.744 5.446 1.244 9.459 2.504 19.043 7.45 27.015.581 1.048 1.245 2.095 1.919 3.157 1.224 1.931 2.479 3.909 3.324 6.024.462 1.387.852 2.718 1.222 3.983h.001c1.992 6.805 3.422 11.685 12.542 13.068 5.899.983 13.764 0 18.025-4.591 4.26-4.263 4.588-10.493 4.588-16.067-.107-3.207-.318-6.45-.532-9.727-.441-6.774-.893-13.696-.451-20.767zm-40.637-135.42c-7.538-6.23-19.336 11.148-13.765 15.739 6.227 4.918 21.958-9.181 13.765-15.739zm53.088-31.15c1.639 2.295.655 5.574-1.639 6.886-2.949 1.639-8.848 4.263-20.319 4.263-7.21 0-15.403-2.624-18.353-5.575-1.311-1.311-1.311-3.934-.327-5.574.655-.984 1.638-1.967 2.294-2.623 8.848-8.853 26.218-8.525 35.394-.656.984.656 1.967 1.968 2.95 3.279zm24.583 95.089c1.967.328 3.933-.655 4.916-2.623.144-.287.225-.575.297-.835.094-.333.175-.62.359-.804 1.311-5.575-2.295-11.477-7.538-13.116-1.967-.656-3.933-.328-5.572.328-3.277 1.311-4.26 5.574-2.621 8.525 1.638 2.623 3.932 5.902 6.882 7.542.286.095.573.219.868.346.716.308 1.48.637 2.409.637zm-124.865 3.607c-.327-5.902 2.95-12.132 8.521-14.427 2.95-.984 8.521-1.64 10.815.328 2.332 2.041 1.294 5.897.575 8.57-.09.333-.174.648-.247.939-.655 3.606-1.966 7.213-3.605 10.82-.151.302-.306.626-.468.963-1.242 2.589-2.859 5.961-5.759 6.251-5.899.656-9.504-8.853-9.832-13.444z" fill-rule="evenodd"/><path d="m623.809 282.52c-.913-8.62-.522-17.898 4.302-25.136 2.803-4.212 6.975-7.436 9.518-11.779 2.021-3.487 2.868-7.567 2.477-11.581-.196-1.842-1.239-3.487-2.868-4.343-4.694-2.434-6.519 5.593-10.17 3.883-.782-.395-1.304-1.119-1.564-1.975-1.565-5.527.456-11.449 3.715-16.055 3.064-4.343 7.236-7.765 11.213-11.252 2.151-1.908 4.302-3.883 5.606-6.515 1.239-2.566 1.434-5.922-.326-8.225-2.477 1.053-5.28-1.053-6.128-3.619-.847-2.566-.195-5.33.391-7.896l6.063-25.794c.652-2.83-2.412-5.067-4.889-3.554-1.108.724-2.477 1.448-3.781-.197-.456-.592-.717-1.382-.848-2.172-.651-4.342-6.258-4.737-9.126-2.237-2.542 2.237-3.39 5.857-3.846 9.212-.717 5.594-.652 11.253.196 16.846.326 2.171.782 4.343.326 6.448-.717 3.488-3.651 6.054-5.802 8.883-5.085 6.581-6.454 15.859-3.52 23.689 1.76 4.54 4.889 8.752 5.084 13.621.131 2.961-.847 5.856-2.02 8.554-1.891 4.212-5.476 8.752-10.105 7.502-1.955-.527-3.52-2.04-4.367-3.948-1.695-3.817-.848-7.831.065-11.647 1.76-7.699 3.455-15.398 5.215-23.097.587-2.632.978-5.79-1.108-7.501-.717-.592-1.565-.856-2.282-1.382-2.803-2.171-1.238-6.778 1.108-9.41 2.347-2.632 5.476-5.33 5.215-8.883-.13-2.106-1.499-4.014-1.368-6.185.195-2.698 2.868-4.87 2.737-7.633-.13-2.04-1.76-3.619-2.737-5.396-1.826-3.29-1.369-7.37-.261-10.989 1.173-3.553 2.933-6.909 3.846-10.594.912-3.751.717-8.159-1.891-10.989-1.955-2.105-5.084-2.829-7.627-1.513-2.216 1.184-2.672 3.356-2.998 5.461-1.434 9.015-1.76 18.227-.913 27.374.717 7.501 2.021 15.858-3.716 21.385-1.434 1.382-3.52 2.106-5.41 1.58-3.325-.856-4.107-4.409-4.563-7.502-1.369-9.08-2.673-18.687.912-27.11 1.5-3.619 3.977-7.238 3.129-11.055-3.194.592-6.584-1.776-7.236-4.935-.326-1.776-.13-3.948-1.629-4.935-.717-.461-1.695-.461-2.608-.461-5.345.198-11.994 1.316-13.624 6.515-1.63 5.264 3.455 11.581.391 16.121-4.759-1.776-10.56-.131-13.689 3.882-1.304 1.646-2.152 3.949-1.304 5.923.521 1.052 1.499 1.842 2.347 2.632 7.301 6.119 12.45 14.739 14.602 24.083-2.021.198-3.846-1.513-4.824-3.29-.978-1.842-1.5-3.882-2.673-5.593-3.194-4.672-11.278-4.475-14.211.329-2.868 4.738-.391 11.318 3.846 14.871s9.844 5.001 15.059 6.778c5.736 1.974 11.342 4.408 16.623 7.435 2.281 1.25 4.563 2.764 5.671 5.133 1.043 2.237.782 4.869.391 7.304-1.369 9.146-3.39 19.411 2.021 26.847 1.89 2.632 4.563 4.606 6.519 7.238 1.955 2.632 2.998 6.383 1.238 9.081-6.584-.527-6.453-12.634-12.907-13.95-.522-.132-1.108-.132-1.63.131-.586.329-.912.922-1.173 1.514-2.282 4.935-1.369 10.923 1.173 15.792 2.543 4.869 6.389 8.818 10.17 12.634 3.65 3.685 7.301 7.37 11.277 10.66.587 1.908 1.434 3.751 2.021 5.659 1.825 5.922 3.585 11.844 5.411 17.766.847 2.698 1.629 5.462 3.259 7.765s4.107 4.211 6.91 4.277c.717 0 1.499-.066 2.086-.461.847-.592 1.239-1.645 1.564-2.697 3.195-10.66-.717-20.267-1.955-31.322z"/><path d="m50.5849 265c.7547-3.4 2.4151-6.9 1.5094-10.3-.7547-2.6-2.8679-4.9-4.2264-7.4-6.9434-12.1 3.3208-26.1-2.8679-38.4 5.7358 2.2 8.3019 6.8 8.6038 11.2s-1.0566 8.8-1.2076 13.2c0 9.3 6.1887 18.1 7.8491 27.4 1.3585 7.9-.6038 15.9-.3019 23.9 0 1.7.3019 3.5 2.1132 4.7 1.6604 1.2 5.434 1.3 6.3396-.3.3019-.5.3019-1 .3019-1.5-.6038-12.2-1.3585-24.4-2.1132-36.6-.4528-5.5-.7547-11-3.1698-16.2-1.6604-3.6-4.0755-6.9-5.283-10.6-1.8113-5.2-.9057-10.8-3.7736-15.8-3.1698-5.3-9.9623-11.1-5.283-15.8.6037-.6 1.3585-1.1 2.4151-1.4 2.2641-.5 4.6792.7 5.5849 2.1.9056 1.4.7547 3.1.6037 4.6-.6037 15.2 12.0755 29.2 15.6982 44.3 1.3584 5.8 1.3584 11.8 1.5094 17.7 0 7.1 0 14.3.1509 21.4 0 3.5 1.2076 8.1 6.4906 8.7 1.3585-4 1.3585-8.1 1.5094-12.2.3019-11.9.6038-23.8.9057-35.7.1509-3.6.1509-7.2-1.6604-10.5-2.2641-4.1-7.2453-8.6-3.6226-12.2 4.3773 4.2 6.9434 9.1 7.3962 14.1.1509 2.4 0 5 1.2075 7.2.9057 1.6 2.4151 3 3.6227 4.5 3.0189 4.1 2.1132 9 1.3585 13.5-1.3585 9.4-1.2076 18.8.1509 28.2.3019 1.5.7547 3.3 2.8679 3.9 2.2642.7 4.9809-.7 5.7359-2.3s0-3.3-.604-5c-2.113-6-2.4149-12.3-1.2073-18.5.4528-2.2 3.6223-5 6.0373-3.4.151 9.1 1.057 18.2 2.868 27.2.906 4.9 1.963 10.3-2.415 14.3-3.924 3.5-11.3205 4.7-17.8111 3.8-6.4905-.9-12.0754-3.4-17.0566-6.3-13.4339-7.8-22.9434-23.7-20.2264-35.5z"/><path d="m-10.7898 285.237c-8.6665-7.707-15.3947-17.508-19.494-28.334-.7575-2.027-1.2922-4.7.4233-6.058 1.7154-1.359 4.233-.201 5.8816 1.203 6.0598 5.256 8.3991 13.743 14.03566 19.49.86888.891 2.09421 1.782 3.27499 1.403 1.47041-.468 1.73775-2.428 1.73775-3.965-.02228-4.366-.02227-8.731-.04455-13.097 0-1.649.02228-3.408.89115-4.812 1.69319-2.695 6.01529-2.628 8.39913-.534 2.38383 2.094 3.20815 5.524 3.29727 8.709.08911 3.186-.40102 6.393 0 9.578.11139.936.35646 1.916 1.06938 2.495 1.13623.913 2.87402.312 3.96562-.668 3.9879-3.609 3.676-11.427 8.8447-12.986 3.3196-1.003 6.8173 1.759 7.9313 5.034 1.25 3.674 5.2696 6.691 8.5129 4.559 1.1145-.733 2.2278-1.465 3.3394-2.198.7798-.512 1.7378-1.069 2.6289-.735.557.2.958.735 1.2922 1.225 2.9408 4.41 4.6117 9.667 4.79 14.969.0891 2.472-.2451 5.145-1.9383 6.949-1.0917 1.158-2.6289 1.804-4.1216 2.339-10.6047 3.831-22.1006 4.321-33.3737 4.767-2.89624.111-5.79249.223-8.68874.356-3.76513.156-7.77533.245-11.00576-1.693"/><path d="m528.21 277.237c-8.666-7.707-15.395-17.508-19.494-28.334-.757-2.027-1.292-4.7.423-6.058 1.716-1.359 4.233-.201 5.882 1.203 6.06 5.256 8.399 13.743 14.036 19.49.869.891 2.094 1.782 3.275 1.403 1.47-.468 1.738-2.428 1.738-3.965-.023-4.366-.023-8.731-.045-13.097 0-1.649.022-3.408.891-4.812 1.693-2.695 6.015-2.628 8.399-.534s3.208 5.524 3.297 8.709c.09 3.186-.401 6.393 0 9.578.112.936.357 1.916 1.07 2.495 1.136.913 2.874.312 3.966-.668 3.987-3.609 3.676-11.427 8.844-12.986 3.32-1.003 6.818 1.759 7.931 5.034 1.251 3.674 5.27 6.691 8.513 4.559 1.115-.733 2.228-1.465 3.34-2.198.78-.512 1.738-1.069 2.629-.735.557.2.958.735 1.292 1.225 2.941 4.41 4.612 9.667 4.79 14.969.089 2.472-.245 5.145-1.938 6.949-1.092 1.158-2.629 1.804-4.122 2.339-10.605 3.831-22.101 4.321-33.374 4.767-2.896.111-5.792.223-8.688.356-3.766.156-7.776.245-11.006-1.693"/><path d="m895.257 276.449c-2.745 1.589-6.431.277-8.491-2.144-2.059-2.421-2.796-5.598-3.406-8.7-2.567-13.518-3.05-27.439-1.398-41.082.254-2.144 1.144-4.868 3.584-4.54.458.051.89.227 1.271.479 16.346 9.886 22.447 30.087 35.31 44.058 1.881 2.043 4.753 4.161 7.27 2.144.737-.58 1.271-1.387 1.551-2.295 3.686-11.55 4.753-23.908 3.076-35.912-.585-4.262-1.195-9.432 2.186-12.131 2.593-2.067 6.558-1.538 9.304.354 2.745 1.891 4.525 4.791 6.253 7.616 5.262 8.7 10.524 17.426 15.812 26.127 1.017 1.689 2.898 3.656 4.652 2.673l.279-6.456c.28-6.557 8.11-9.861 13.092-5.523 2.491 2.169 5.033 4.312 7.626 6.38 2.161 1.74 4.805 3.531 7.522 2.85 2.42-.605 3.89-2.976 4.91-5.246 2.39-5.321 3.71-11.197 5.24-16.922 2.54-9.482 14.46-12.685 21.45-5.749l10.93 10.869c2.11 2.093 4.3 4.237 7.02 5.447 2.72 1.211 6.18 1.286 8.49-.58 2.39-1.916 2.97-5.195 4.07-8.045 1.09-2.849 3.63-5.8 6.63-5.119 1.25.277 2.29 1.16 3.23 2.017 4.07 3.581 8.16 7.163 12.23 10.769 1.93 1.69 3.96 3.455 6.45 4.035 4.22 1.009 8.62-1.664 10.98-5.271.03-.025.06-.075.08-.101 2.34-3.631 7.73-3.455 9.74.353 5.59 10.567 12.22 20.554 19.8 29.835-32.03 12.71-67.01 15.686-101.43 18.208-16.73 1.21-33.478 2.37-50.255 2.118-13.651-.202-27.277-1.311-40.775-3.304-16.193-2.421-32.793-6.43-45.503-16.669"/><path d="m1494.74 283.449c2.75 1.589 6.43.277 8.49-2.144s2.8-5.598 3.41-8.7c2.57-13.518 3.05-27.439 1.4-41.082-.26-2.144-1.15-4.868-3.59-4.54-.45.051-.89.227-1.27.479-16.34 9.886-22.44 30.087-35.31 44.058-1.88 2.043-4.75 4.161-7.27 2.144-.73-.58-1.27-1.387-1.55-2.295-3.68-11.55-4.75-23.908-3.07-35.912.58-4.262 1.19-9.432-2.19-12.131-2.59-2.067-6.56-1.538-9.3.354-2.75 1.891-4.53 4.791-6.26 7.616-5.26 8.7-10.52 17.426-15.81 26.127-1.02 1.689-2.9 3.656-4.65 2.673l-.28-6.456c-.28-6.557-8.11-9.861-13.09-5.523-2.49 2.169-5.04 4.312-7.63 6.38-2.16 1.74-4.8 3.531-7.52 2.85-2.42-.605-3.89-2.976-4.91-5.246-2.39-5.321-3.71-11.197-5.24-16.922-2.54-9.482-14.46-12.685-21.45-5.749l-10.93 10.869c-2.11 2.093-4.3 4.237-7.02 5.447-2.72 1.211-6.18 1.286-8.49-.58-2.39-1.916-2.97-5.195-4.07-8.045-1.09-2.849-3.63-5.8-6.63-5.119-1.25.277-2.29 1.16-3.23 2.017-4.07 3.581-8.16 7.163-12.23 10.769-1.93 1.69-3.96 3.455-6.45 4.035-4.22 1.009-8.62-1.664-10.98-5.271-.03-.025-.06-.075-.08-.101-2.34-3.631-7.73-3.455-9.74.353-5.59 10.567-12.22 20.554-19.8 29.835 32.03 12.71 67.01 15.686 101.43 18.208 16.73 1.21 33.48 2.37 50.26 2.118 13.65-.202 27.27-1.311 40.77-3.304 16.19-2.421 32.79-6.43 45.5-16.669"/></g></svg>